<svg data-v-423bf9ae="" xmlns="http://www.w3.org/2000/svg" viewBox="0 0 663 90" class="iconLeftSlogan"><!----><!----><!----><g data-v-423bf9ae="" id="a9ffa2e7-0e93-4e3f-9ca0-f4e2a3d2bfe6" fill="#0D3721" transform="matrix(5.7915059834320255,0,0,5.7915059834320255,274.4207539808472,-20.270271418849248)"><path d="M3.58 13.86Q1.97 13.86 1.20 12.87Q0.43 11.89 0.43 10.30L0.43 10.30Q0.43 8.68 1.20 7.69Q1.96 6.71 3.58 6.71L3.58 6.71Q4.26 6.71 4.82 6.81Q5.38 6.92 5.96 7.14L5.96 7.14L5.70 9.02L5.00 9.02L4.69 7.74Q4.23 7.56 3.72 7.56L3.72 7.56Q2.84 7.56 2.52 8.26Q2.20 8.96 2.20 10.28L2.20 10.28Q2.20 11.26 2.36 11.83Q2.52 12.40 2.88 12.66Q3.23 12.91 3.84 12.91L3.84 12.91Q4.86 12.91 5.89 12.59L5.89 12.59L5.99 13.15Q5.49 13.48 4.87 13.67Q4.26 13.86 3.58 13.86L3.58 13.86ZM9.48 7.66Q8.89 7.66 8.34 7.84L8.34 7.84L8.02 9.02L7.34 9.02L7.10 7.22Q8.46 6.71 9.91 6.71L9.91 6.71Q11.00 6.71 11.56 7.07Q12.12 7.43 12.12 8.37L12.12 8.37L12.12 12.68L13.27 13.02L13.27 13.55Q12.38 13.79 11.76 13.79L11.76 13.79Q11.33 13.79 10.98 13.59Q10.63 13.40 10.53 13.03L10.53 13.03Q9.95 13.44 9.44 13.65Q8.92 13.86 8.33 13.86L8.33 13.86Q7.59 13.86 7.16 13.38Q6.73 12.89 6.73 12.14L6.73 12.14Q6.73 11.47 7.13 10.90Q7.53 10.33 8.53 10.14L8.53 10.14L10.49 9.76L10.49 8.71Q10.49 8.15 10.26 7.90Q10.04 7.66 9.48 7.66L9.48 7.66ZM9.44 10.72Q8.86 10.85 8.62 11.16Q8.37 11.47 8.37 11.94L8.37 11.94Q8.37 12.82 9.20 12.82L9.20 12.82Q9.49 12.82 9.86 12.69Q10.22 12.56 10.49 12.39L10.49 12.39L10.49 10.50L9.44 10.72ZM17.70 7.78Q17.08 7.78 16.58 8.02L16.58 8.02L16.58 12.82L18.19 13.12L18.19 13.72L13.79 13.72L13.79 13.13L14.94 12.82L14.94 7.95L13.79 7.78L13.79 7.24L15.97 6.71L16.56 6.71L16.56 7.35Q17.04 7.04 17.61 6.85Q18.19 6.66 18.68 6.66L18.68 6.66Q18.97 6.66 19.07 6.68L19.07 6.68L18.82 9.02L17.99 9.02L17.70 7.78ZM22.50 7.56Q21.92 7.56 21.59 7.78Q21.27 8.01 21.27 8.40L21.27 8.40Q21.27 8.75 21.44 8.96Q21.62 9.17 22.04 9.31L22.04 9.31L23.44 9.77Q24.22 10.02 24.56 10.46Q24.89 10.91 24.89 11.69L24.89 11.69Q24.89 12.70 24.16 13.28Q23.42 13.86 22.09 13.86L22.09 13.86Q21.57 13.86 20.94 13.77Q20.31 13.68 19.85 13.51L19.85 13.51L20.02 11.68L20.71 11.68L21 12.84Q21.50 13.01 22.08 13.01L22.08 13.01Q22.76 13.01 23.13 12.75Q23.49 12.50 23.49 12.01L23.49 12.01Q23.49 11.69 23.30 11.52Q23.10 11.34 22.58 11.16L22.58 11.16L21.28 10.71Q20.58 10.46 20.24 10.01Q19.89 9.56 19.89 8.83L19.89 8.83Q19.89 7.83 20.55 7.27Q21.21 6.71 22.53 6.71L22.53 6.71Q23.03 6.71 23.58 6.81Q24.14 6.92 24.61 7.13L24.61 7.13L24.42 8.79L23.76 8.79L23.46 7.76Q23.03 7.56 22.50 7.56L22.50 7.56ZM33.63 12.99Q33.15 13.41 32.54 13.62Q31.93 13.83 31.11 13.83L31.11 13.83Q30.21 13.83 29.62 13.52Q29.02 13.22 28.74 12.71Q28.46 12.21 28.46 11.62L28.46 11.62Q28.46 10.65 28.96 10.04Q29.46 9.42 30.30 8.97L30.30 8.97Q29.40 7.76 29.40 6.86L29.40 6.86Q29.40 5.82 30.14 5.38Q30.88 4.94 31.77 4.94L31.77 4.94Q32.72 4.94 33.32 5.36Q33.92 5.78 33.92 6.57L33.92 6.57Q33.92 7.13 33.68 7.54Q33.43 7.95 33.05 8.25Q32.66 8.55 32.00 8.95L32.00 8.95L33.91 11.14Q34.15 10.54 34.17 9.72L34.17 9.72L33.61 9.53L33.61 8.97L36.15 8.97L36.15 9.52L35.08 9.73Q34.96 10.88 34.51 11.79L34.51 11.79L35.56 12.89L36.62 13.16L36.62 13.72L34.36 13.72L33.63 12.99ZM30.84 6.68Q30.84 7.42 31.51 8.26L31.51 8.26Q32.06 7.95 32.35 7.60Q32.65 7.25 32.65 6.75L32.65 6.75Q32.65 6.36 32.45 6.06Q32.24 5.77 31.72 5.77L31.72 5.77Q31.29 5.77 31.07 6.01Q30.84 6.24 30.84 6.68L30.84 6.68ZM31.49 13.02Q32.02 13.02 32.45 12.87Q32.89 12.71 33.17 12.43L33.17 12.43Q32.96 12.19 32.49 11.70L32.49 11.70Q31.32 10.44 30.76 9.70L30.76 9.70Q30.32 10.02 30.13 10.39Q29.95 10.77 29.95 11.28L29.95 11.28Q29.95 12.14 30.34 12.58Q30.73 13.02 31.49 13.02L31.49 13.02ZM42.46 13.86Q40.85 13.86 40.08 12.87Q39.31 11.89 39.31 10.30L39.31 10.30Q39.31 8.68 40.08 7.69Q40.84 6.71 42.46 6.71L42.46 6.71Q43.13 6.71 43.69 6.81Q44.25 6.92 44.84 7.14L44.84 7.14L44.58 9.02L43.88 9.02L43.57 7.74Q43.11 7.56 42.60 7.56L42.60 7.56Q41.72 7.56 41.40 8.26Q41.08 8.96 41.08 10.28L41.08 10.28Q41.08 11.26 41.24 11.83Q41.40 12.40 41.76 12.66Q42.11 12.91 42.71 12.91L42.71 12.91Q43.74 12.91 44.77 12.59L44.77 12.59L44.87 13.15Q44.37 13.48 43.75 13.67Q43.13 13.86 42.46 13.86L42.46 13.86ZM48.36 7.66Q47.77 7.66 47.22 7.84L47.22 7.84L46.90 9.02L46.21 9.02L45.98 7.22Q47.33 6.71 48.79 6.71L48.79 6.71Q49.88 6.71 50.44 7.07Q51.00 7.43 51.00 8.37L51.00 8.37L51.00 12.68L52.15 13.02L52.15 13.55Q51.25 13.79 50.64 13.79L50.64 13.79Q50.20 13.79 49.85 13.59Q49.50 13.40 49.41 13.03L49.41 13.03Q48.83 13.44 48.31 13.65Q47.80 13.86 47.21 13.86L47.21 13.86Q46.47 13.86 46.04 13.38Q45.61 12.89 45.61 12.14L45.61 12.14Q45.61 11.47 46.01 10.90Q46.41 10.33 47.40 10.14L47.40 10.14L49.36 9.76L49.36 8.71Q49.36 8.15 49.14 7.90Q48.92 7.66 48.36 7.66L48.36 7.66ZM48.31 10.72Q47.74 10.85 47.50 11.16Q47.25 11.47 47.25 11.94L47.25 11.94Q47.25 12.82 48.08 12.82L48.08 12.82Q48.37 12.82 48.73 12.69Q49.10 12.56 49.36 12.39L49.36 12.39L49.36 10.50L48.31 10.72ZM55.54 7.56Q54.96 7.56 54.64 7.78Q54.31 8.01 54.31 8.40L54.31 8.40Q54.31 8.75 54.48 8.96Q54.66 9.17 55.08 9.31L55.08 9.31L56.48 9.77Q57.26 10.02 57.60 10.46Q57.93 10.91 57.93 11.69L57.93 11.69Q57.93 12.70 57.20 13.28Q56.46 13.86 55.13 13.86L55.13 13.86Q54.61 13.86 53.98 13.77Q53.35 13.68 52.89 13.51L52.89 13.51L53.06 11.68L53.75 11.68L54.04 12.84Q54.54 13.01 55.12 13.01L55.12 13.01Q55.80 13.01 56.17 12.75Q56.53 12.50 56.53 12.01L56.53 12.01Q56.53 11.69 56.34 11.52Q56.14 11.34 55.62 11.16L55.62 11.16L54.32 10.71Q53.62 10.46 53.28 10.01Q52.93 9.56 52.93 8.83L52.93 8.83Q52.93 7.83 53.59 7.27Q54.25 6.71 55.57 6.71L55.57 6.71Q56.07 6.71 56.62 6.81Q57.18 6.92 57.65 7.13L57.65 7.13L57.46 8.79L56.80 8.79L56.50 7.76Q56.07 7.56 55.54 7.56L55.54 7.56ZM66.93 13.72L63.18 13.72L63.18 13.15L64.13 12.82L64.13 8.58Q64.13 8.23 64.05 8.05Q63.97 7.87 63.73 7.80Q63.50 7.73 63.06 7.73L63.06 7.73Q62.15 7.73 61.53 7.92L61.53 7.92L61.53 12.82L62.48 13.15L62.48 13.72L58.73 13.72L58.73 13.10L59.89 12.82L59.89 4.75L58.74 4.59L58.74 4.05L61.00 3.50L61.53 3.50L61.53 7.27Q61.96 7.06 62.69 6.88Q63.42 6.71 64.02 6.71L64.02 6.71Q64.79 6.71 65.29 7.06Q65.79 7.42 65.79 8.18L65.79 8.18L65.79 12.82L66.93 13.15L66.93 13.72Z"></path></g><defs data-v-423bf9ae=""><linearGradient data-v-423bf9ae="" gradientTransform="rotate(25)" id="2763514a-867e-4b9d-b195-fbf36c0f8b91" x1="0%" y1="0%" x2="100%" y2="0%"><stop data-v-423bf9ae="" offset="0%" style="stop-color: rgb(8, 91, 32); stop-opacity: 1;"></stop><stop data-v-423bf9ae="" offset="100%" style="stop-color: rgb(65, 226, 150); stop-opacity: 1;"></stop></linearGradient></defs><g data-v-423bf9ae="" id="690696fc-bad9-4610-9d6c-674a1b25ec00" transform="matrix(3.2889792729688745,0,0,3.2889792729688745,-31.89469294315697,-136.58065421038094)" stroke="none" fill="url(#2763514a-867e-4b9d-b195-fbf36c0f8b91)"><path d="M87.82 52.572c-.331-.132.066-.862 0-1.725-.066-.862-.465-1.062-1.658-1.193-1.193-.133-5.703-1.327-6.433-1.459-.73-.132-4.931-2.309-8.556-4.51-1.941-1.177-4.511-1.061-6.367-1.326-1.857-.265-5.969-.531-12.336-.597-6.368-.066-9.707.526-10.418.709-1.699.438-5.45 5.483-7.954 5.989-3.95.798-23.189 2.489-23.486 2.847-.621.752-.78 3.819-.796 4.482-.02.808-.087 2.46.498 2.91.754.58 1.368.682 1.368.682.444.083 2.908.594 5.699 1.174.488 2.965 2.785 5.21 5.549 5.21 2.022 0 3.792-1.205 4.79-3.01.139.038.267.072.377.098.52.12.995-.63 1.194.132.132.507 2.132.482 2.487.497.698.029 2.454-.098 3.316-.014.862.085 3.051-.217 3.449-.748.398-.53 1.187-2.305 1.494-2.917.306-.609 2.064-2.483 2.711-2.911 1.153-.764 2.228-.538 2.825-.443.608.099 3.051 1.065 3.35 3.586.218 1.844.342 3.414.342 3.414s8.776-1.259 14.547-1.989c5.771-.729 7.693-.729 7.693-.729s.075-.072.202-.205c.539-.56 1.749-2.024 2.61-3.666 1.06-2.017.496-.991.951-1.783.345-.598.533-.771.974-.949.565-.229 2.164-.066 2.989 1.587.462.928.829 2.662 1.294 2.495.533-.19 4.907-1.789 5.504-2.661.598-.871.598.009 1.062-.786.464-.798 1.06-2.059.729-2.191zm-34.215-2.727l-17.642-1.724s6.046-4.998 6.337-5.169c.286-.168 14.32.451 14.225.725-.181.504-1.526 3.184-2.123 4.444-.597 1.259-.797 1.724-.797 1.724zm18.911-1.443s-1.144.125-1.642.224c-.497.099-3.431.547-4.128.696s-2.984.298-3.481.349c-.498.05-4.304.249-4.304.249s-4.551.149-4.451 0c.1-.15 2.885-6.118 2.885-6.118h8.357s.386.226 1.392.796c1.093.618 4.278 2.263 5.174 2.81.895.546.198.994.198.994z"></path><path d="M11.463 52.491l20.165 2.82-.169 4.069s-20.19-3.259-20.202-3.427c-.065-.976.206-3.462.206-3.462z"></path><path d="M20.759 55.721c-.053.764-1.355 1.185-2.894.936l-3.604-.585c-1.539-.249-2.75-1.077-2.692-1.841.059-.763 1.366-1.183 2.905-.934l3.581.581c1.54.249 2.756 1.078 2.704 1.843zM31.111 57.242c0 .89-1.259 1.413-2.798 1.164l-4.223-.686c-1.539-.249-2.75-1.101-2.691-1.893.059-.792 1.373-1.276 2.919-1.077l3.982.512c1.546.2 2.811 1.091 2.811 1.98zM43.106 56.354c-3.12 0-5.649 2.856-5.649 6.383 0 3.525 2.529 6.384 5.649 6.384s5.649-2.858 5.649-6.384c0-3.527-2.529-6.383-5.649-6.383zm1.539 10.213c-1.429 0-2.587-1.663-2.587-3.715 0-2.051 1.158-3.714 2.587-3.714 1.428 0 2.586 1.663 2.586 3.714-.001 2.052-1.158 3.715-2.586 3.715zM75.117 54.478c-2.602 0-4.71 2.142-4.71 4.784s2.108 4.784 4.71 4.784 4.711-2.143 4.711-4.784c0-2.643-2.109-4.784-4.711-4.784zm1.893 7.844c-1.135 0-2.056-1.419-2.056-3.17 0-1.75.921-3.168 2.056-3.168 1.136 0 2.056 1.418 2.056 3.168-.001 1.751-.92 3.17-2.056 3.17z"></path></g><!----><g data-v-423bf9ae="" id="4e25a860-3044-4e08-a267-ced37cfda946" fill="#0D3721" transform="matrix(1.3786832119605958,0,0,1.3786832119605958,276.3871928830464,56.00181790117286)"><path d="M0.38 12.39C0.38 12.63 0.38 12.68 0.57 12.68C0.74 12.68 1.06 12.64 1.64 12.64C2.25 12.64 2.80 12.68 2.95 12.68C3.12 12.68 3.12 12.61 3.12 12.40C3.12 12.24 3.12 12.18 2.95 12.18L1.88 12.18C1.88 12.18 1.86 12.18 1.86 12.17C1.88 11.87 2.65 9.90 3.00 9.02C3.07 8.83 3.08 8.79 3.29 8.79L6.12 8.79C6.26 8.79 6.26 8.81 6.33 9.03C6.59 9.77 7.31 11.89 7.31 12.17C7.31 12.18 7.29 12.18 7.29 12.18L6.52 12.18C6.30 12.18 6.29 12.19 6.29 12.39C6.29 12.63 6.30 12.68 6.47 12.68C6.79 12.68 7.66 12.64 8.08 12.64C8.50 12.64 9.17 12.68 9.38 12.68C9.52 12.68 9.53 12.61 9.53 12.40C9.53 12.24 9.52 12.18 9.38 12.18L8.89 12.18C8.79 12.18 7.77 9.34 7.21 7.78L5.53 3.07C5.52 3.00 5.45 2.94 5.36 2.94C5.24 2.94 5.14 3.16 5.05 3.35C4.90 3.71 4.66 3.84 4.55 4.13L3.07 7.57C2.88 8.01 1.18 12.18 1.05 12.18L0.63 12.18C0.41 12.18 0.38 12.19 0.38 12.39ZM3.28 8.33C3.28 8.30 3.30 8.23 3.35 8.13L4.72 4.77C4.76 4.66 4.79 4.61 4.82 4.61C4.83 4.61 4.84 4.63 4.89 4.77L6.05 8.18C6.08 8.25 6.09 8.29 6.09 8.32C6.09 8.36 6.06 8.37 5.96 8.37L3.46 8.37C3.28 8.37 3.28 8.34 3.28 8.33ZM17.22 12.39C17.22 12.63 17.25 12.68 17.44 12.68C17.68 12.68 18.19 12.64 18.61 12.64C19.03 12.64 19.52 12.68 19.84 12.68C20.01 12.68 20.03 12.61 20.03 12.40C20.03 12.24 20.01 12.18 19.84 12.18L18.87 12.18C18.82 12.18 18.80 11.54 18.80 10.79C18.80 8.96 18.84 6.13 18.91 4.28C18.94 3.88 18.97 3.91 19.11 4.27L22.37 12.32C22.47 12.54 22.54 12.74 22.65 12.74C22.75 12.74 22.82 12.63 22.90 12.45C23.24 11.79 23.42 11.75 23.69 11.09L26.28 4.47C26.40 4.16 26.45 4.02 26.46 4.47C26.49 5.66 26.53 8.47 26.53 9.74C26.53 10.99 26.49 12.18 26.43 12.18L25.80 12.18C25.58 12.18 25.51 12.19 25.51 12.39C25.51 12.63 25.54 12.68 25.73 12.68C25.93 12.68 26.63 12.64 27.23 12.64C27.65 12.64 28.41 12.68 28.73 12.68C28.90 12.68 28.92 12.61 28.92 12.40C28.92 12.22 28.87 12.18 28.70 12.18L27.97 12.18C27.86 12.18 27.76 8.44 27.76 6.03L27.76 4.77C27.76 4.17 27.79 3.77 27.83 3.70L28.49 3.70C28.71 3.70 28.76 3.68 28.76 3.49C28.76 3.25 28.74 3.19 28.55 3.19C28.22 3.19 27.54 3.23 27.12 3.23L26.45 3.23C26.22 3.23 26.19 3.29 26.08 3.58L23.34 10.72C23.25 10.95 23.23 11.02 23.11 10.74L20.17 3.40C20.10 3.22 20.05 3.19 19.91 3.19C19.82 3.19 19.33 3.23 19.03 3.23C18.52 3.23 17.67 3.19 17.47 3.19C17.33 3.19 17.33 3.26 17.33 3.47C17.33 3.64 17.33 3.70 17.47 3.70L18.17 3.70C18.44 3.70 18.44 3.72 18.44 3.84C18.44 4.82 18.23 9.94 18.19 10.79C18.14 11.55 18.14 12.18 18.09 12.18L17.51 12.18C17.29 12.18 17.22 12.19 17.22 12.39ZM36.82 12.39C36.82 12.63 36.85 12.68 37.04 12.68C37.37 12.68 38.33 12.64 38.75 12.64C39.17 12.64 43.68 12.68 44.00 12.68C44.13 12.68 44.28 12.66 44.28 12.49C44.28 12.07 44.32 11.23 44.32 10.53C44.32 10.39 44.17 10.39 44.04 10.39C43.93 10.39 43.81 10.39 43.81 10.51C43.79 11.06 43.79 11.41 43.76 11.76C43.74 12.01 43.74 12.04 43.64 12.04C43.48 12.04 40.85 12.08 39.35 12.08C39.28 12.08 39.24 10.11 39.20 8.26C39.20 8.06 39.24 8.09 39.38 8.09L41.66 8.09C42.36 8.09 42.39 8.20 42.39 8.30L42.39 9.00C42.39 9.14 42.57 9.14 42.69 9.14C42.78 9.14 42.91 9.13 42.91 9.02C42.91 8.83 42.88 8.33 42.88 7.83C42.88 7.32 42.91 6.83 42.91 6.71C42.91 6.59 42.77 6.58 42.67 6.58C42.56 6.58 42.39 6.59 42.39 6.72L42.39 7.45C42.39 7.62 41.94 7.63 41.66 7.63L39.33 7.63C39.21 7.63 39.20 7.63 39.20 7.45C39.19 6.75 39.17 6.06 39.17 5.46C39.17 5.12 39.17 3.71 39.26 3.71C40.49 3.71 42.99 3.75 42.99 3.81C42.99 3.99 42.95 4.83 42.95 4.89C42.95 5.04 43.02 5.10 43.20 5.10C43.40 5.10 43.47 5.08 43.47 4.94C43.47 3.85 43.53 3.36 43.53 3.09C43.53 2.91 43.44 2.90 43.25 2.90C43.05 2.90 43.05 2.95 43.02 3.11C43.01 3.25 43.08 3.25 42.17 3.25C41.55 3.25 39.41 3.29 38.64 3.29C38.15 3.29 37.21 3.25 37.11 3.25C36.99 3.25 36.93 3.30 36.93 3.49C36.93 3.72 37.00 3.74 37.17 3.74L37.83 3.74C37.88 3.74 37.95 4.79 37.95 5.71C37.95 5.80 38.01 8.27 38.01 9.83L38.01 11.17C38.01 11.84 37.98 12.18 37.95 12.18L37.10 12.18C36.88 12.18 36.82 12.21 36.82 12.39ZM52.29 3.51C52.29 3.72 52.36 3.79 52.56 3.79L53.37 3.77C53.47 3.77 53.51 6.61 53.51 8.55L53.51 10.42C53.51 11.30 53.49 12.18 53.45 12.18L52.85 12.18C52.63 12.18 52.56 12.19 52.56 12.39C52.56 12.63 52.60 12.68 52.79 12.68C52.92 12.68 53.75 12.64 54.17 12.64C54.59 12.64 55.36 12.68 55.68 12.68C55.85 12.68 55.87 12.61 55.87 12.40C55.87 12.24 55.85 12.18 55.68 12.18L54.87 12.18C54.80 12.18 54.71 9.18 54.71 8.37C54.71 8.30 54.71 8.26 54.82 8.26C55.22 8.26 55.82 8.27 56.11 8.27C58.35 8.32 58.49 10.00 58.49 11.68L58.49 12.49C58.49 12.61 58.55 12.64 58.65 12.64C58.65 12.64 60.09 12.68 60.56 12.68C60.73 12.68 60.79 12.64 60.79 12.53C60.79 12.24 60.73 12.18 60.58 12.18L59.93 12.18C59.84 12.18 59.81 12.14 59.78 11.31C59.70 8.99 58.32 8.34 57.41 8.05C57.27 8.01 57.30 8.01 57.41 7.95C58.00 7.69 59.32 6.94 59.32 5.63C59.32 3.63 57.62 3.21 56.22 3.21C55.90 3.21 54.61 3.29 54.19 3.29C53.77 3.29 52.79 3.26 52.57 3.26C52.39 3.26 52.29 3.28 52.29 3.51ZM54.71 7.80L54.71 4.40C54.71 4.05 54.74 3.68 54.78 3.68C54.99 3.65 55.27 3.65 55.50 3.65C56.80 3.65 58.04 4.47 58.04 5.82C58.04 6.99 57.50 7.57 56.84 7.88C56.80 7.90 56.76 7.90 56.69 7.90C56.21 7.88 55.50 7.88 54.89 7.87C54.73 7.87 54.71 7.85 54.71 7.80ZM68.12 12.39C68.12 12.63 68.17 12.68 68.36 12.68C68.68 12.68 69.44 12.64 70.15 12.64C70.81 12.64 71.61 12.68 71.83 12.68C72.00 12.68 72.03 12.61 72.03 12.40C72.03 12.24 72.00 12.18 71.83 12.18L70.87 12.18C70.77 12.18 70.74 9.55 70.74 7.76L70.74 5.87C70.74 5.14 70.77 3.70 70.87 3.70L71.78 3.70C72.00 3.70 72.03 3.68 72.03 3.49C72.03 3.25 72.00 3.19 71.83 3.19C71.51 3.19 70.84 3.23 70.18 3.23C69.37 3.23 68.66 3.19 68.43 3.19C68.25 3.19 68.18 3.21 68.18 3.44C68.18 3.68 68.26 3.70 68.43 3.70L69.36 3.70C69.40 3.70 69.47 4.79 69.47 5.71L69.47 7.08C69.47 8.92 69.45 12.18 69.34 12.18L68.42 12.18C68.19 12.18 68.12 12.19 68.12 12.39ZM80.00 7.91C80.00 11.31 82.36 12.87 84.95 12.87C86.73 12.87 88.51 11.90 88.55 11.59C88.72 10.29 88.77 9.70 88.77 9.66C88.77 9.56 88.73 9.52 88.56 9.51C88.51 9.51 88.45 9.49 88.41 9.49C88.30 9.49 88.24 9.53 88.21 9.70L88.03 11.33C88.02 11.45 86.91 12.24 85.34 12.24C83.22 12.24 81.51 10.29 81.51 7.94C81.51 5.42 82.94 3.54 84.94 3.54C86.79 3.54 88.13 5.01 88.13 5.17C88.13 5.29 88.07 6.40 88.07 6.45C88.07 6.59 88.12 6.64 88.38 6.64C88.58 6.64 88.65 6.62 88.65 6.44C88.65 5.73 88.70 3.92 88.70 3.67C88.70 3.47 88.59 3.44 88.38 3.44C88.16 3.44 88.13 3.50 88.13 3.67L88.13 4.05C88.13 4.16 88.09 4.16 87.96 4.06C87.68 3.86 86.70 3.04 85.04 3.04C82.19 3.04 80.00 4.96 80.00 7.91ZM97.02 12.39C97.02 12.63 97.02 12.68 97.22 12.68C97.38 12.68 97.71 12.64 98.28 12.64C98.90 12.64 99.44 12.68 99.60 12.68C99.76 12.68 99.76 12.61 99.76 12.40C99.76 12.24 99.76 12.18 99.60 12.18L98.52 12.18C98.52 12.18 98.50 12.18 98.50 12.17C98.52 11.87 99.29 9.90 99.64 9.02C99.71 8.83 99.72 8.79 99.93 8.79L102.76 8.79C102.90 8.79 102.90 8.81 102.97 9.03C103.24 9.77 103.95 11.89 103.95 12.17C103.95 12.18 103.94 12.18 103.94 12.18L103.17 12.18C102.94 12.18 102.93 12.19 102.93 12.39C102.93 12.63 102.94 12.68 103.11 12.68C103.43 12.68 104.30 12.64 104.72 12.64C105.14 12.64 105.81 12.68 106.02 12.68C106.16 12.68 106.18 12.61 106.18 12.40C106.18 12.24 106.16 12.18 106.02 12.18L105.53 12.18C105.43 12.18 104.41 9.34 103.85 7.78L102.17 3.07C102.16 3.00 102.09 2.94 102.00 2.94C101.88 2.94 101.78 3.16 101.70 3.35C101.54 3.71 101.30 3.84 101.19 4.13L99.71 7.57C99.53 8.01 97.82 12.18 97.69 12.18L97.27 12.18C97.05 12.18 97.02 12.19 97.02 12.39ZM99.92 8.33C99.92 8.30 99.95 8.23 99.99 8.13L101.36 4.77C101.40 4.66 101.43 4.61 101.46 4.61C101.47 4.61 101.49 4.63 101.53 4.77L102.69 8.18C102.72 8.25 102.73 8.29 102.73 8.32C102.73 8.36 102.70 8.37 102.61 8.37L100.10 8.37C99.92 8.37 99.92 8.34 99.92 8.33ZM113.93 12.39C113.93 12.63 113.95 12.68 114.14 12.68C114.32 12.68 114.70 12.64 115.32 12.64C115.95 12.64 116.51 12.68 116.83 12.68C117.00 12.68 117.00 12.61 117.00 12.40C117.00 12.24 117.00 12.18 116.83 12.18L115.63 12.18C115.58 12.18 115.57 11.54 115.57 10.79C115.57 9.46 115.58 7.48 115.58 5.99C115.58 5.25 115.58 4.84 115.60 4.28C115.60 4.02 115.67 4.14 115.79 4.28L122.68 12.66C122.77 12.75 122.85 12.89 122.96 12.89C123.07 12.89 123.14 12.77 123.14 12.54C123.14 12.39 123.31 6.65 123.33 4.48C123.33 4.06 123.35 3.70 123.38 3.70L124.01 3.70C124.24 3.70 124.29 3.68 124.29 3.49C124.29 3.25 124.29 3.19 124.10 3.19C123.90 3.19 123.47 3.23 122.91 3.23C122.29 3.23 121.49 3.19 121.39 3.19C121.23 3.19 121.23 3.26 121.23 3.47C121.23 3.64 121.23 3.70 121.39 3.70L122.70 3.70C122.71 3.70 122.71 4.33 122.71 4.44C122.71 5.85 122.74 8.33 122.74 9.70L122.74 10.29C122.74 10.57 122.72 10.65 122.50 10.37L116.82 3.39C116.70 3.25 116.68 3.19 116.51 3.19C116.42 3.19 116.05 3.23 115.74 3.23C115.44 3.23 114.37 3.19 114.17 3.19C114.00 3.19 113.97 3.26 113.97 3.47C113.97 3.64 114.00 3.70 114.17 3.70L115.08 3.70C115.08 4.17 115.04 8.53 114.97 10.79C114.94 11.69 114.95 12.18 114.84 12.18L114.20 12.18C113.97 12.18 113.93 12.19 113.93 12.39ZM142.20 8.15C142.20 11.17 144.54 12.80 146.79 12.80C149.58 12.80 151.55 10.89 151.55 8.06C151.55 5.33 149.80 3.11 147 3.11C144.40 3.11 142.20 5.10 142.20 8.15ZM143.60 7.77C143.60 5.64 144.89 3.58 146.86 3.58C149.10 3.58 150.18 5.81 150.18 7.94C150.18 10.08 149.07 12.32 146.80 12.32C144.82 12.32 143.60 10.28 143.60 7.77ZM158.96 3.51C158.96 3.75 159.07 3.77 159.24 3.77L159.74 3.77C159.82 3.77 161.97 10.99 161.99 11.07C162.34 12.14 162.46 12.99 162.76 12.99C162.99 12.99 163.09 12.67 163.37 12.26C163.52 12.05 163.62 12.01 163.76 11.66L165.75 6.45C165.82 6.29 165.84 6.20 165.87 6.20C165.90 6.20 165.93 6.29 165.97 6.45C166.57 8.51 167.24 11.03 167.26 11.07C167.61 12.14 167.72 12.99 168.03 12.99C168.25 12.99 168.35 12.67 168.63 12.26C168.78 12.05 168.88 12.01 169.02 11.66L172.12 4.06C172.21 3.81 172.21 3.77 172.58 3.77C172.82 3.77 172.87 3.71 172.87 3.53C172.87 3.32 172.83 3.26 172.63 3.26C172.49 3.26 172.19 3.30 171.68 3.30C170.94 3.30 170.44 3.26 170.24 3.26C170.06 3.26 169.96 3.28 169.96 3.51C169.96 3.75 170.07 3.77 170.24 3.77L171.15 3.77C171.22 3.77 171.23 3.81 171.23 3.95C171.23 4.63 169.64 8.72 168.92 10.63C168.78 10.99 168.71 11.17 168.67 11.17C168.62 11.17 168.56 10.99 168.43 10.60C168.35 10.30 167.43 7.18 166.89 5.22C166.85 5.05 166.64 4.17 166.64 3.85C166.64 3.81 166.64 3.79 166.66 3.77L167.54 3.77C167.72 3.77 167.82 3.75 167.82 3.56C167.82 3.32 167.78 3.26 167.58 3.26C167.26 3.26 166.32 3.30 165.90 3.30C165.48 3.30 164.57 3.26 164.35 3.26C164.16 3.26 164.07 3.28 164.07 3.51C164.07 3.75 164.18 3.77 164.35 3.77L165.14 3.77C165.19 3.77 165.37 4.27 165.52 4.83C165.58 5.05 165.62 5.15 165.62 5.25C165.62 5.31 165.62 5.38 165.58 5.49L163.58 10.60C163.48 10.82 163.45 10.95 163.41 10.95C163.37 10.95 163.34 10.84 163.25 10.60C163.17 10.32 162.16 7.27 161.56 5.22C161.52 5.08 161.20 3.96 161.18 3.85C161.20 3.77 161.24 3.77 161.28 3.77L161.98 3.77C162.20 3.77 162.27 3.75 162.27 3.56C162.27 3.32 162.23 3.26 162.04 3.26C161.71 3.26 161 3.30 160.58 3.30C160.16 3.30 159.46 3.26 159.24 3.26C159.05 3.26 158.96 3.28 158.96 3.51ZM180.49 12.39C180.49 12.63 180.50 12.68 180.70 12.68C180.88 12.68 181.26 12.64 181.87 12.64C182.50 12.64 183.06 12.68 183.39 12.68C183.55 12.68 183.55 12.61 183.55 12.40C183.55 12.24 183.55 12.18 183.39 12.18L182.18 12.18C182.14 12.18 182.13 11.54 182.13 10.79C182.13 9.46 182.14 7.48 182.14 5.99C182.14 5.25 182.14 4.84 182.15 4.28C182.15 4.02 182.22 4.14 182.35 4.28L189.24 12.66C189.32 12.75 189.41 12.89 189.52 12.89C189.63 12.89 189.70 12.77 189.70 12.54C189.70 12.39 189.87 6.65 189.88 4.48C189.88 4.06 189.91 3.70 189.94 3.70L190.57 3.70C190.79 3.70 190.85 3.68 190.85 3.49C190.85 3.25 190.85 3.19 190.65 3.19C190.46 3.19 190.02 3.23 189.46 3.23C188.85 3.23 188.05 3.19 187.95 3.19C187.78 3.19 187.78 3.26 187.78 3.47C187.78 3.64 187.78 3.70 187.95 3.70L189.25 3.70C189.27 3.70 189.27 4.33 189.27 4.44C189.27 5.85 189.29 8.33 189.29 9.70L189.29 10.29C189.29 10.57 189.28 10.65 189.06 10.37L183.37 3.39C183.26 3.25 183.23 3.19 183.06 3.19C182.98 3.19 182.60 3.23 182.29 3.23C182 3.23 180.92 3.19 180.73 3.19C180.56 3.19 180.53 3.26 180.53 3.47C180.53 3.64 180.56 3.70 180.73 3.70L181.64 3.70C181.64 4.17 181.59 8.53 181.52 10.79C181.50 11.69 181.51 12.18 181.40 12.18L180.75 12.18C180.53 12.18 180.49 12.19 180.49 12.39ZM198.88 12.39C198.88 12.63 198.91 12.68 199.11 12.68C199.43 12.68 200.40 12.64 200.82 12.64C201.24 12.64 205.74 12.68 206.07 12.68C206.19 12.68 206.35 12.66 206.35 12.49C206.35 12.07 206.39 11.23 206.39 10.53C206.39 10.39 206.23 10.39 206.11 10.39C206.00 10.39 205.87 10.39 205.87 10.51C205.86 11.06 205.86 11.41 205.83 11.76C205.80 12.01 205.80 12.04 205.70 12.04C205.55 12.04 202.92 12.08 201.42 12.08C201.35 12.08 201.31 10.11 201.26 8.26C201.26 8.06 201.31 8.09 201.45 8.09L203.73 8.09C204.43 8.09 204.46 8.20 204.46 8.30L204.46 9.00C204.46 9.14 204.64 9.14 204.75 9.14C204.85 9.14 204.97 9.13 204.97 9.02C204.97 8.83 204.95 8.33 204.95 7.83C204.95 7.32 204.97 6.83 204.97 6.71C204.97 6.59 204.83 6.58 204.74 6.58C204.62 6.58 204.46 6.59 204.46 6.72L204.46 7.45C204.46 7.62 204.01 7.63 203.73 7.63L201.39 7.63C201.28 7.63 201.26 7.63 201.26 7.45C201.25 6.75 201.24 6.06 201.24 5.46C201.24 5.12 201.24 3.71 201.32 3.71C202.55 3.71 205.06 3.75 205.06 3.81C205.06 3.99 205.02 4.83 205.02 4.89C205.02 5.04 205.09 5.10 205.27 5.10C205.46 5.10 205.53 5.08 205.53 4.94C205.53 3.85 205.59 3.36 205.59 3.09C205.59 2.91 205.51 2.90 205.31 2.90C205.11 2.90 205.11 2.95 205.09 3.11C205.07 3.25 205.14 3.25 204.23 3.25C203.62 3.25 201.47 3.29 200.70 3.29C200.21 3.29 199.28 3.25 199.18 3.25C199.05 3.25 199.00 3.30 199.00 3.49C199.00 3.72 199.07 3.74 199.23 3.74L199.89 3.74C199.95 3.74 200.02 4.79 200.02 5.71C200.02 5.80 200.07 8.27 200.07 9.83L200.07 11.17C200.07 11.84 200.05 12.18 200.02 12.18L199.16 12.18C198.94 12.18 198.88 12.21 198.88 12.39ZM214.28 12.46C214.28 12.63 214.30 12.70 214.48 12.70C214.63 12.70 215.87 12.64 216.26 12.64C217.11 12.64 217.99 12.70 218.85 12.70C221.47 12.70 223.86 11.07 223.86 7.91C223.86 4.89 221.52 3.07 218.48 3.07C217.92 3.07 216.66 3.23 215.63 3.23C215.15 3.23 214.69 3.22 214.63 3.22C214.45 3.22 214.44 3.32 214.44 3.49C214.44 3.68 214.51 3.70 214.63 3.70L215.60 3.67C215.63 3.67 215.63 4.20 215.63 4.72C215.63 5.91 215.54 12.21 215.46 12.21L214.56 12.21C214.38 12.21 214.28 12.22 214.28 12.46ZM216.86 11.40C216.86 9.46 216.86 7.52 216.87 5.60C216.87 5.03 216.92 3.61 216.96 3.60C217.25 3.53 217.84 3.51 218.19 3.51C220.75 3.51 222.36 5.75 222.36 7.73C222.36 8.95 222.32 12.25 217.64 12.25C217.38 12.25 216.97 12.25 216.87 12.21C216.86 12.19 216.86 11.79 216.86 11.40Z"></path></g></svg>