<svg data-v-fde0c5aa="" xmlns="http://www.w3.org/2000/svg" viewBox="0 0 300 300" class="font"><!----><defs data-v-fde0c5aa=""><!----></defs><rect data-v-fde0c5aa="" fill="#E4F3EB" x="0" y="0" width="300px" height="300px" class="logo-background-square"></rect><defs data-v-fde0c5aa=""><linearGradient data-v-fde0c5aa="" gradientTransform="rotate(25)" id="7d1f1612-71a1-4e0c-9357-453723ebfc84" x1="0%" y1="0%" x2="100%" y2="0%"><stop data-v-fde0c5aa="" offset="0%" stop-color="#085B20" stop-opacity="1"></stop><stop data-v-fde0c5aa="" offset="100%" stop-color="#41E296" stop-opacity="1"></stop></linearGradient></defs><g data-v-fde0c5aa="" id="c575346f-095b-4e09-9214-7eee84f2cb6e" fill="url(#7d1f1612-71a1-4e0c-9357-453723ebfc84)" transform="matrix(3.308270676691729,0,0,3.308270676691729,38.57744358535996,121.2842110942181)"><path d="M3.58 13.86Q1.97 13.86 1.20 12.87Q0.43 11.89 0.43 10.30L0.43 10.30Q0.43 8.68 1.20 7.69Q1.96 6.71 3.58 6.71L3.58 6.71Q4.26 6.71 4.82 6.81Q5.38 6.92 5.96 7.14L5.96 7.14L5.70 9.02L5.00 9.02L4.69 7.74Q4.23 7.56 3.72 7.56L3.72 7.56Q2.84 7.56 2.52 8.26Q2.20 8.96 2.20 10.28L2.20 10.28Q2.20 11.26 2.36 11.83Q2.52 12.40 2.88 12.66Q3.23 12.91 3.84 12.91L3.84 12.91Q4.86 12.91 5.89 12.59L5.89 12.59L5.99 13.15Q5.49 13.48 4.87 13.67Q4.26 13.86 3.58 13.86L3.58 13.86ZM9.48 7.66Q8.89 7.66 8.34 7.84L8.34 7.84L8.02 9.02L7.34 9.02L7.10 7.22Q8.46 6.71 9.91 6.71L9.91 6.71Q11.00 6.71 11.56 7.07Q12.12 7.43 12.12 8.37L12.12 8.37L12.12 12.68L13.27 13.02L13.27 13.55Q12.38 13.79 11.76 13.79L11.76 13.79Q11.33 13.79 10.98 13.59Q10.63 13.40 10.53 13.03L10.53 13.03Q9.95 13.44 9.44 13.65Q8.92 13.86 8.33 13.86L8.33 13.86Q7.59 13.86 7.16 13.38Q6.73 12.89 6.73 12.14L6.73 12.14Q6.73 11.47 7.13 10.90Q7.53 10.33 8.53 10.14L8.53 10.14L10.49 9.76L10.49 8.71Q10.49 8.15 10.26 7.90Q10.04 7.66 9.48 7.66L9.48 7.66ZM9.44 10.72Q8.86 10.85 8.62 11.16Q8.37 11.47 8.37 11.94L8.37 11.94Q8.37 12.82 9.20 12.82L9.20 12.82Q9.49 12.82 9.86 12.69Q10.22 12.56 10.49 12.39L10.49 12.39L10.49 10.50L9.44 10.72ZM17.70 7.78Q17.08 7.78 16.58 8.02L16.58 8.02L16.58 12.82L18.19 13.12L18.19 13.72L13.79 13.72L13.79 13.13L14.94 12.82L14.94 7.95L13.79 7.78L13.79 7.24L15.97 6.71L16.56 6.71L16.56 7.35Q17.04 7.04 17.61 6.85Q18.19 6.66 18.68 6.66L18.68 6.66Q18.97 6.66 19.07 6.68L19.07 6.68L18.82 9.02L17.99 9.02L17.70 7.78ZM22.50 7.56Q21.92 7.56 21.59 7.78Q21.27 8.01 21.27 8.40L21.27 8.40Q21.27 8.75 21.44 8.96Q21.62 9.17 22.04 9.31L22.04 9.31L23.44 9.77Q24.22 10.02 24.56 10.46Q24.89 10.91 24.89 11.69L24.89 11.69Q24.89 12.70 24.16 13.28Q23.42 13.86 22.09 13.86L22.09 13.86Q21.57 13.86 20.94 13.77Q20.31 13.68 19.85 13.51L19.85 13.51L20.02 11.68L20.71 11.68L21 12.84Q21.50 13.01 22.08 13.01L22.08 13.01Q22.76 13.01 23.13 12.75Q23.49 12.50 23.49 12.01L23.49 12.01Q23.49 11.69 23.30 11.52Q23.10 11.34 22.58 11.16L22.58 11.16L21.28 10.71Q20.58 10.46 20.24 10.01Q19.89 9.56 19.89 8.83L19.89 8.83Q19.89 7.83 20.55 7.27Q21.21 6.71 22.53 6.71L22.53 6.71Q23.03 6.71 23.58 6.81Q24.14 6.92 24.61 7.13L24.61 7.13L24.42 8.79L23.76 8.79L23.46 7.76Q23.03 7.56 22.50 7.56L22.50 7.56ZM33.63 12.99Q33.15 13.41 32.54 13.62Q31.93 13.83 31.11 13.83L31.11 13.83Q30.21 13.83 29.62 13.52Q29.02 13.22 28.74 12.71Q28.46 12.21 28.46 11.62L28.46 11.62Q28.46 10.65 28.96 10.04Q29.46 9.42 30.30 8.97L30.30 8.97Q29.40 7.76 29.40 6.86L29.40 6.86Q29.40 5.82 30.14 5.38Q30.88 4.94 31.77 4.94L31.77 4.94Q32.72 4.94 33.32 5.36Q33.92 5.78 33.92 6.57L33.92 6.57Q33.92 7.13 33.68 7.54Q33.43 7.95 33.05 8.25Q32.66 8.55 32.00 8.95L32.00 8.95L33.91 11.14Q34.15 10.54 34.17 9.72L34.17 9.72L33.61 9.53L33.61 8.97L36.15 8.97L36.15 9.52L35.08 9.73Q34.96 10.88 34.51 11.79L34.51 11.79L35.56 12.89L36.62 13.16L36.62 13.72L34.36 13.72L33.63 12.99ZM30.84 6.68Q30.84 7.42 31.51 8.26L31.51 8.26Q32.06 7.95 32.35 7.60Q32.65 7.25 32.65 6.75L32.65 6.75Q32.65 6.36 32.45 6.06Q32.24 5.77 31.72 5.77L31.72 5.77Q31.29 5.77 31.07 6.01Q30.84 6.24 30.84 6.68L30.84 6.68ZM31.49 13.02Q32.02 13.02 32.45 12.87Q32.89 12.71 33.17 12.43L33.17 12.43Q32.96 12.19 32.49 11.70L32.49 11.70Q31.32 10.44 30.76 9.70L30.76 9.70Q30.32 10.02 30.13 10.39Q29.95 10.77 29.95 11.28L29.95 11.28Q29.95 12.14 30.34 12.58Q30.73 13.02 31.49 13.02L31.49 13.02ZM42.46 13.86Q40.85 13.86 40.08 12.87Q39.31 11.89 39.31 10.30L39.31 10.30Q39.31 8.68 40.08 7.69Q40.84 6.71 42.46 6.71L42.46 6.71Q43.13 6.71 43.69 6.81Q44.25 6.92 44.84 7.14L44.84 7.14L44.58 9.02L43.88 9.02L43.57 7.74Q43.11 7.56 42.60 7.56L42.60 7.56Q41.72 7.56 41.40 8.26Q41.08 8.96 41.08 10.28L41.08 10.28Q41.08 11.26 41.24 11.83Q41.40 12.40 41.76 12.66Q42.11 12.91 42.71 12.91L42.71 12.91Q43.74 12.91 44.77 12.59L44.77 12.59L44.87 13.15Q44.37 13.48 43.75 13.67Q43.13 13.86 42.46 13.86L42.46 13.86ZM48.36 7.66Q47.77 7.66 47.22 7.84L47.22 7.84L46.90 9.02L46.21 9.02L45.98 7.22Q47.33 6.71 48.79 6.71L48.79 6.71Q49.88 6.71 50.44 7.07Q51.00 7.43 51.00 8.37L51.00 8.37L51.00 12.68L52.15 13.02L52.15 13.55Q51.25 13.79 50.64 13.79L50.64 13.79Q50.20 13.79 49.85 13.59Q49.50 13.40 49.41 13.03L49.41 13.03Q48.83 13.44 48.31 13.65Q47.80 13.86 47.21 13.86L47.21 13.86Q46.47 13.86 46.04 13.38Q45.61 12.89 45.61 12.14L45.61 12.14Q45.61 11.47 46.01 10.90Q46.41 10.33 47.40 10.14L47.40 10.14L49.36 9.76L49.36 8.71Q49.36 8.15 49.14 7.90Q48.92 7.66 48.36 7.66L48.36 7.66ZM48.31 10.72Q47.74 10.85 47.50 11.16Q47.25 11.47 47.25 11.94L47.25 11.94Q47.25 12.82 48.08 12.82L48.08 12.82Q48.37 12.82 48.73 12.69Q49.10 12.56 49.36 12.39L49.36 12.39L49.36 10.50L48.31 10.72ZM55.54 7.56Q54.96 7.56 54.64 7.78Q54.31 8.01 54.31 8.40L54.31 8.40Q54.31 8.75 54.48 8.96Q54.66 9.17 55.08 9.31L55.08 9.31L56.48 9.77Q57.26 10.02 57.60 10.46Q57.93 10.91 57.93 11.69L57.93 11.69Q57.93 12.70 57.20 13.28Q56.46 13.86 55.13 13.86L55.13 13.86Q54.61 13.86 53.98 13.77Q53.35 13.68 52.89 13.51L52.89 13.51L53.06 11.68L53.75 11.68L54.04 12.84Q54.54 13.01 55.12 13.01L55.12 13.01Q55.80 13.01 56.17 12.75Q56.53 12.50 56.53 12.01L56.53 12.01Q56.53 11.69 56.34 11.52Q56.14 11.34 55.62 11.16L55.62 11.16L54.32 10.71Q53.62 10.46 53.28 10.01Q52.93 9.56 52.93 8.83L52.93 8.83Q52.93 7.83 53.59 7.27Q54.25 6.71 55.57 6.71L55.57 6.71Q56.07 6.71 56.62 6.81Q57.18 6.92 57.65 7.13L57.65 7.13L57.46 8.79L56.80 8.79L56.50 7.76Q56.07 7.56 55.54 7.56L55.54 7.56ZM66.93 13.72L63.18 13.72L63.18 13.15L64.13 12.82L64.13 8.58Q64.13 8.23 64.05 8.05Q63.97 7.87 63.73 7.80Q63.50 7.73 63.06 7.73L63.06 7.73Q62.15 7.73 61.53 7.92L61.53 7.92L61.53 12.82L62.48 13.15L62.48 13.72L58.73 13.72L58.73 13.10L59.89 12.82L59.89 4.75L58.74 4.59L58.74 4.05L61.00 3.50L61.53 3.50L61.53 7.27Q61.96 7.06 62.69 6.88Q63.42 6.71 64.02 6.71L64.02 6.71Q64.79 6.71 65.29 7.06Q65.79 7.42 65.79 8.18L65.79 8.18L65.79 12.82L66.93 13.15L66.93 13.72Z"></path></g><!----><!----></svg>